<?xml version="1.0" encoding="utf-8"?>
<!-- Generator: Adobe Illustrator 24.0.1, SVG Export Plug-In . SVG Version: 6.00 Build 0)  -->
<svg version="1.1" id="Layer_1" xmlns="http://www.w3.org/2000/svg" xmlns:xlink="http://www.w3.org/1999/xlink" x="0px" y="0px"
	 viewBox="0 0 69 43" style="enable-background:new 0 0 69 43;" xml:space="preserve">
<style type="text/css">
	.st0{fill-rule:evenodd;clip-rule:evenodd;fill:#FFFFFF;}
</style>
<title>Company</title>
<desc>Created with Sketch.</desc>
<g id="Page-1">
	<g id="Desktop" transform="translate(-19.000000, -8.000000)">
		<g id="Logo" transform="translate(19.000000, 8.000000)">
			<path id="Company" class="st0" d="M1.7,32.1l0-0.2c0.1-1.4,0.4-2.7,1-3.9c0.6-1.1,1.3-2,2.2-2.7c0.9-0.7,1.7-1,2.6-1
				c0.6,0,1.1,0.2,1.5,0.7c0.3,0.4,0.5,0.9,0.5,1.4c0,0.7-0.2,1.3-0.7,2c-0.3,0.4-0.6,0.6-0.9,0.8c-0.2,0.1-0.3,0.1-0.4,0.1
				s-0.2,0-0.4-0.1s-0.2-0.1-0.3-0.2c-0.2-0.2-0.3-0.3-0.3-0.5s0-0.2,0.1-0.3c0.7-0.5,1.3-1.1,1.5-1.7c0.1-0.2,0.2-0.4,0.2-0.6
				c0-0.4-0.2-0.7-0.6-0.7c-0.7,0-1.3,0.4-2,1.1C5,27,4.5,27.9,4,28.9c-0.5,1-0.7,2-0.7,2.8l0,0.3c0,1,0.2,1.7,0.6,2
				c0.2,0.1,0.3,0.2,0.6,0.2s0.4,0,0.6-0.1s0.4-0.1,0.6-0.2C6,33.7,6.4,33.4,6.9,33c0.1-0.1,0.3-0.1,0.4,0c0.1,0.1,0.1,0.3,0.1,0.4
				c0,0.3,0,0.4-0.1,0.5s-0.2,0.2-0.4,0.3s-0.4,0.2-0.6,0.4c-0.6,0.3-1.1,0.4-1.7,0.4s-1-0.1-1.3-0.2s-0.6-0.3-0.9-0.6
				C1.9,33.8,1.7,33,1.7,32.1z M9.6,34.5c-0.2-0.2-0.3-0.4-0.5-0.7S9,33.2,9,32.8c0-0.4,0-0.8,0.1-1.2s0.2-0.8,0.4-1.1
				s0.4-0.7,0.6-1s0.5-0.6,0.8-0.8c0.7-0.5,1.4-0.8,2.1-0.8c0.9,0,1.6,0.4,1.9,1.2c0.2,0.6,0.3,1.3,0,2.2c-0.2,0.8-0.5,1.5-1.1,2.1
				c-0.5,0.7-1.1,1.1-1.8,1.4c-0.3,0.1-0.7,0.2-1,0.2s-0.6,0-0.9-0.1S9.8,34.7,9.6,34.5z M10.9,31.2c-0.1,0.3-0.2,0.7-0.3,1
				c-0.1,0.4-0.1,0.7-0.1,1s0.1,0.6,0.1,0.7s0.2,0.3,0.5,0.3s0.4-0.1,0.6-0.2s0.4-0.3,0.6-0.6s0.4-0.5,0.5-0.8s0.3-0.6,0.4-1
				c0.3-0.7,0.4-1.4,0.4-2c0-0.5-0.1-0.8-0.3-1c-0.1-0.1-0.2-0.1-0.3-0.1s-0.3,0.1-0.5,0.2s-0.4,0.3-0.6,0.5s-0.4,0.5-0.6,0.8
				S11,30.9,10.9,31.2z M21.3,29.2c-0.3,0-0.7,0.4-1.4,1.1c-0.5,0.6-0.9,1-1.1,1.3l-0.6,0.8c-0.3,0.5-0.5,0.9-0.6,1.3l-0.4,0.8
				c-0.1,0.2-0.2,0.3-0.2,0.4s-0.2,0.1-0.3,0.1s-0.2,0-0.3-0.1s-0.2-0.1-0.3-0.2c-0.2-0.1-0.3-0.3-0.3-0.5c0-0.1,0.1-0.2,0.2-0.4
				l0.3-0.6c0.1-0.2,0.2-0.4,0.3-0.6l0.4-0.9c0.5-1.3,0.8-2.2,0.8-2.6c0-0.2-0.1-0.4-0.2-0.5l-0.1-0.1c0,0-0.1-0.1-0.1-0.2
				s0-0.2,0.1-0.2s0.1-0.1,0.2-0.2c0.2-0.1,0.4-0.2,0.6-0.2s0.4,0,0.5,0.1s0.2,0.1,0.3,0.2c0.2,0.2,0.3,0.3,0.3,0.5s0,0.3-0.1,0.5
				s-0.1,0.4-0.2,0.5s-0.1,0.4-0.2,0.5c-0.2,0.4-0.3,0.6-0.3,0.7s-0.1,0.1,0,0.1c0.8-1.1,1.3-1.7,1.5-1.9c0.4-0.4,0.6-0.7,0.8-0.8
				c0.4-0.3,0.7-0.4,1-0.4s0.6,0.1,0.8,0.3c0.2,0.2,0.3,0.5,0.3,0.8c0,0.3-0.1,0.6-0.2,1s-0.2,0.7-0.3,0.8l1-1.3l0.6-0.7
				c0.3-0.4,0.6-0.6,0.9-0.7s0.5-0.2,0.6-0.2s0.3,0,0.5,0.1c0.2,0.1,0.3,0.1,0.4,0.3c0.2,0.2,0.3,0.5,0.3,0.9c0,0.4-0.1,0.7-0.2,1.1
				s-0.3,0.7-0.4,0.9s-0.2,0.5-0.4,0.7c-0.3,0.7-0.5,1.3-0.5,1.6c0,0.2,0.1,0.4,0.3,0.4c0.2,0,0.4,0,0.5-0.1s0.3-0.1,0.3-0.1
				c0.1,0,0.1,0,0.1,0.1c0,0.4-0.2,0.7-0.6,1c-0.3,0.2-0.5,0.3-0.8,0.3s-0.4,0-0.6-0.1s-0.3-0.1-0.4-0.3c-0.3-0.3-0.4-0.6-0.4-1
				s0.1-0.8,0.2-1.1s0.2-0.7,0.4-1s0.3-0.6,0.4-0.9s0.2-0.5,0.3-0.6c0.1-0.3,0.2-0.6,0.2-0.7c0-0.2-0.1-0.3-0.3-0.3
				c-0.2,0-0.7,0.4-1.3,1.2c-0.5,0.6-0.8,1.1-1,1.4l-0.5,0.7c-0.3,0.5-0.5,0.9-0.6,1.3L21,34.5c-0.1,0.2-0.2,0.3-0.2,0.4
				s-0.2,0.1-0.3,0.1s-0.2,0-0.3-0.1s-0.2-0.1-0.3-0.1c-0.2-0.1-0.3-0.3-0.3-0.4s0-0.4,0.1-0.6s0.2-0.5,0.4-0.9l1-2
				c0.3-0.8,0.5-1.2,0.5-1.4S21.5,29.2,21.3,29.2z M22,31.1C22,31.1,22,31.1,22,31.1L22,31.1C22,31.1,22,31.1,22,31.1z M28.8,34.4
				c0,0.1-0.1,0.4-0.3,1.1S28.2,36.6,28,37c-0.3,0.9-0.5,1.4-0.7,1.6c-0.2,0.2-0.3,0.2-0.5,0.2c-0.3,0-0.5-0.1-0.6-0.4
				c0-0.1-0.1-0.2-0.1-0.2s0.1-0.3,0.2-0.6c0.4-0.8,0.8-2.2,1.4-4.4c0.2-0.9,0.4-1.5,0.5-1.8l0.2-0.9c0.1-0.6,0.2-0.9,0.2-1.2
				s0-0.3,0-0.4s-0.1-0.1-0.2-0.2s-0.1-0.1-0.2-0.1s-0.1-0.1-0.1-0.2s0-0.2,0.1-0.2c0.1-0.1,0.1-0.1,0.2-0.2
				c0.2-0.1,0.4-0.1,0.6-0.1s0.4,0,0.5,0.1s0.2,0.1,0.3,0.2c0.2,0.2,0.2,0.4,0.2,0.5c0,0.4-0.1,0.7-0.2,0.9c0.8-1.1,1.6-1.7,2.5-1.7
				c0.8,0,1.3,0.4,1.6,1.2c0.1,0.3,0.1,0.6,0.1,1s-0.1,0.8-0.2,1.2s-0.3,0.8-0.5,1.2s-0.5,0.7-0.7,1s-0.6,0.6-0.9,0.8
				c-0.7,0.5-1.3,0.7-1.9,0.7S29.1,34.8,28.8,34.4z M29.8,31.4c-0.2,0.3-0.3,0.6-0.4,1s-0.2,0.6-0.2,0.9s0.1,0.5,0.2,0.7
				s0.3,0.3,0.5,0.3s0.4-0.1,0.7-0.2s0.4-0.3,0.6-0.5s0.4-0.4,0.6-0.7c0.2-0.3,0.3-0.6,0.5-0.9c0.3-0.7,0.4-1.3,0.4-1.9
				c0-0.3,0-0.6-0.1-0.8S32.4,29,32.2,29s-0.4,0.1-0.6,0.2s-0.4,0.3-0.6,0.6s-0.4,0.5-0.6,0.8S30,31.1,29.8,31.4z M40.6,33.2
				c0,0.4,0.1,0.6,0.4,0.6c0.2,0,0.4,0,0.5-0.1s0.2-0.1,0.3-0.1c0.1,0,0.1,0.1,0.1,0.2c0,0.4-0.2,0.7-0.6,1
				c-0.4,0.3-0.9,0.4-1.3,0.2c-0.3-0.1-0.5-0.3-0.7-0.7c-0.1-0.2-0.1-0.3-0.1-0.5c0-0.2,0-0.5,0.1-0.8c-0.4,0.9-1,1.5-1.6,1.8
				c-0.3,0.1-0.5,0.2-0.8,0.2s-0.5-0.1-0.7-0.2s-0.4-0.3-0.5-0.5c-0.3-0.4-0.4-1-0.4-1.6c0-0.8,0.3-1.6,0.7-2.4
				c0.4-0.7,0.9-1.3,1.6-1.8c0.6-0.5,1.2-0.7,1.8-0.7s1,0.3,1.3,0.8c0.3-0.5,0.6-0.8,0.8-0.8c0.3,0,0.5,0,0.6,0.1
				c0.3,0.2,0.3,0.3,0.3,0.5c-1.1,2.3-1.7,3.8-1.8,4.4C40.6,33,40.6,33.1,40.6,33.2z M36.8,33.2c0,0.5,0.2,0.8,0.5,0.8
				c0.3,0,0.6-0.2,1-0.7c0.6-0.7,1.1-1.6,1.5-2.7c0.1-0.4,0.3-0.7,0.4-1.1c0-0.3-0.1-0.5-0.4-0.7c-0.1-0.1-0.2-0.1-0.4-0.1
				s-0.4,0.1-0.6,0.2s-0.4,0.3-0.6,0.5s-0.4,0.4-0.6,0.7s-0.3,0.6-0.5,0.9C36.9,31.8,36.8,32.5,36.8,33.2z M47.8,29.2
				c-0.1,0-0.3,0.1-0.6,0.4s-0.5,0.5-0.7,0.7l-0.6,0.7l-1.1,1.4c-0.3,0.5-0.5,0.9-0.6,1.3l-0.4,0.8c-0.1,0.2-0.2,0.3-0.2,0.4
				s-0.2,0.1-0.3,0.1S43,35,42.9,35s-0.2-0.1-0.3-0.2c-0.2-0.1-0.3-0.3-0.3-0.5c0-0.1,0.1-0.2,0.2-0.4l0.3-0.6
				c0.1-0.2,0.2-0.4,0.3-0.6l0.4-0.9c0.5-1.3,0.8-2.2,0.8-2.6c0-0.2-0.1-0.4-0.2-0.5l-0.1-0.1c0,0-0.1-0.1-0.1-0.2s0-0.2,0.1-0.2
				s0.1-0.1,0.2-0.2c0.2-0.1,0.4-0.2,0.6-0.2s0.4,0,0.5,0.1s0.2,0.1,0.3,0.2c0.2,0.2,0.3,0.3,0.3,0.5s0,0.3-0.1,0.5
				s-0.1,0.4-0.2,0.5s-0.1,0.4-0.2,0.5s-0.1,0.3-0.2,0.5L45.1,31c0,0.1,0,0.1,0,0.1c0.5-0.7,0.8-1.2,1-1.4l0.5-0.6
				c0.4-0.4,0.6-0.7,0.8-0.8c0.4-0.3,0.7-0.4,1-0.4s0.4,0,0.6,0.1c0.2,0.1,0.3,0.1,0.4,0.3c0.3,0.2,0.4,0.5,0.4,0.9
				s-0.1,0.7-0.2,1.1s-0.3,0.7-0.4,1s-0.2,0.5-0.3,0.7c-0.3,0.8-0.5,1.3-0.5,1.7c0,0.2,0.1,0.2,0.4,0.2c0.2,0,0.4,0,0.5-0.1
				s0.3-0.1,0.3-0.1c0.1,0,0.1,0,0.1,0.1c0,0.4-0.2,0.7-0.6,1c-0.3,0.2-0.5,0.3-0.8,0.3s-0.4,0-0.6-0.1s-0.3-0.1-0.4-0.2
				c-0.3-0.2-0.4-0.6-0.4-1c0-0.5,0.2-1.2,0.5-2c0.2-0.5,0.4-0.9,0.5-1.1l0.2-0.5c0.1-0.3,0.2-0.5,0.2-0.7S48,29.2,47.8,29.2z
				 M50.7,34.3c-0.1-0.2-0.1-0.3-0.1-0.5s0-0.4,0.1-0.6s0.2-0.5,0.3-0.7s0.2-0.5,0.3-0.8l0.4-0.8c0.5-1.1,0.6-1.7,0.5-1.9
				c-0.1-0.1-0.2-0.2-0.3-0.3c-0.1,0-0.1-0.1-0.1-0.2s0-0.2,0.1-0.2s0.2-0.1,0.3-0.2c0.2-0.1,0.4-0.2,0.7-0.2s0.4,0,0.5,0.1
				s0.2,0.1,0.3,0.2c0.2,0.2,0.2,0.3,0.2,0.5s0,0.4-0.1,0.6s-0.1,0.5-0.2,0.7s-0.2,0.5-0.3,0.8c-0.3,0.7-0.5,1.2-0.6,1.5l-0.3,0.5
				c-0.1,0.3-0.2,0.5-0.2,0.7s0,0.2,0.1,0.3s0.1,0.1,0.2,0.1s0.2,0,0.4-0.1s0.3-0.2,0.4-0.3s0.3-0.3,0.5-0.5s0.3-0.4,0.5-0.6
				c0.4-0.5,0.7-0.9,0.9-1.3c1-1.8,1.5-2.8,1.6-2.8c0.2-0.2,0.3-0.3,0.5-0.3s0.3,0,0.4,0.1s0.2,0.1,0.3,0.1c0.2,0.1,0.2,0.3,0.2,0.4
				s-0.2,0.4-0.3,0.7c-0.9,2.5-1.4,4.1-1.7,4.7s-0.5,1.1-0.7,1.5s-0.4,0.8-0.7,1.1c-0.3,0.4-0.5,0.7-0.8,1c-0.7,0.7-1.3,1.1-1.9,1.1
				c-0.2,0-0.4,0-0.5-0.1c-0.2-0.1-0.3-0.3-0.3-0.4s0.1-0.2,0.3-0.3s0.4-0.1,0.6-0.3s0.4-0.3,0.6-0.5c0.6-0.6,1.1-1.2,1.4-1.9
				c0.3-0.6,0.5-1.2,0.7-1.7l0.5-1.6c-0.1,0.2-0.3,0.3-0.4,0.6l-0.5,0.7c-0.4,0.5-0.8,0.9-1.1,1.2c-0.5,0.4-1,0.6-1.4,0.6
				C51.3,35.1,50.9,34.8,50.7,34.3z M20.1,5.2l-17.5,19l-2.2-2L20,0.8l10.5,10.5l19.8-8.2l18.5,37.7l-2.7,1.3L48.9,6.9l-19,7.9
				L20.1,5.2z"/>
		</g>
	</g>
</g>
</svg>
